# xmcd
#
# Track frame offsets:
#	150
#	14750
#	34685
#	52460
#	74438
#	86638
#	113475
#	132554
#	152126
#	174794
#	214256
#	262938
#
# Disc length: 4719 seconds
#
# Revision: 1
# Processed by: cddbd v1.4PL0 Copyright (c) Steve Scherf et al.
# Submitted via: CDmax 1.8
#
DISCID=ab126d0c
DTITLE=John Mayall - Rockin' The Roadshow [CD2]
DYEAR=2003
DGENRE=Blues
TTITLE0=Why Worry
TTITLE1=Road Show
TTITLE2=Mama Talk To Your Daughter
TTITLE3=A Big Man
TTITLE4=Lost And Gone
TTITLE5=Mexico City
TTITLE6=John Lee Boogie
TTITLE7=Reaching For A Mountain
TTITLE8=Baby, What You Want Me To Do
TTITLE9=Took The Car (Version 2)
TTITLE10=Crying
TTITLE11=Possessive Emotions
EXTD=
EXTT0=
EXTT1=
EXTT2=
EXTT3=
EXTT4=
EXTT5=
EXTT6=
EXTT7=
EXTT8=
EXTT9=
EXTT10=
EXTT11=
PLAYORDER=
